<svg xmlns="http://www.w3.org/2000/svg" viewBox="0 0 64 64">
  <defs>
    <radialGradient id="glow" cx="50%" cy="42%" r="55%">
      <stop offset="0" stop-color="#8fd3ff" stop-opacity=".28"/>
      <stop offset="1" stop-color="#8fd3ff" stop-opacity="0"/>
    </radialGradient>
  </defs>
  <rect width="64" height="64" rx="14" fill="#0b0d10"/>
  <circle cx="32" cy="32" r="28" fill="url(#glow)"/>
  <path
    d="M13 33c7-13 16-13 22 0 6 13 15 13 22 0-7-13-16-13-22 0-6 13-15 13-22 0Z"
    fill="none"
    stroke="#8fd3ff"
    stroke-width="4"
    stroke-linecap="round"
    stroke-linejoin="round"/>
  <path
    d="M23 40h10v5a5 5 0 0 1-5 5 5 5 0 0 1-5-5v-5Zm10 2h3a3 3 0 0 1 0 6h-3"
    fill="#11151a"
    stroke="#e8eaed"
    stroke-width="2"
    stroke-linecap="round"
    stroke-linejoin="round"/>
  <path
    d="M25 34c-1-2 1-3 0-5m4 5c-1-2 1-3 0-5"
    fill="none"
    stroke="#e8eaed"
    stroke-width="2"
    stroke-linecap="round"/>
</svg>
